<svg version="1.2" xmlns="http://www.w3.org/2000/svg" viewBox="0 0 218 181" width="218" height="181"><style></style><path fill="currentColor;" fill-rule="evenodd" d="m185.7 160.2c-22.3 18.9-55.1 23.1-83 18.4-14.8-2.5-28.5-7.4-41.9-14-15.9-7.9-31.3-17.2-42.6-31.2-18.5-22.8-21.5-56-13.2-83.6 8.5-28.5 33.1-53.6 64.9-48.5 24.6 3.9 52.4 16.7 64.9 39.3 4.8 8.6 7.3 18.6 7 28.1 10.6-5.7 25.1 3.5 26.5 15.1 0.9 6.8-1.5 13.3-5.7 18.6-2.7 3.3-7.2 9-11.9 10.3q1 0.9 1.8 1.9c4.2 5 2.7 11.5-2.1 15.2-5 3.8-11.9 4-17.8 2.5-3.7-1-7.6-2.4-11.5-4.2-5 2.9-12.8 2.8-18.3 2.1-6.9-0.9-13.1-3-18.5-7.4-1-0.8 0-2.4 1.1-1.7 5.8 3.5 12.5 5.6 19.3 5.9 4 0.2 7.9-0.7 11.8-1.2-6.6-3.6-12.9-8.3-17.9-13.8q0 0.1-0.1 0.2c-8.9 8.3-21.2 12.8-33.3 10.6-7.6-1.4-18.8-7.9-18.4-17 0.4-8.5 6.6-13.8 14.8-14.3 8.3-0.5 19.7 3.6 25.8-4-0.5-5.4 0.1-10.9 1.6-16 2-6.6 6.5-16.5 14.4-17-2.6-4.1-6.2-7.4-11.9-9-8.4-2.4-17.1-2.6-24.1 3.5-12.1 10.4-13.6 26.3-4.7 39.2 0.8 1.2-0.5 3.2-1.9 2.1-15.8-12-9.9-37 4.7-47.3 8.9-6.4 19.8-6.2 29.5-1.8 10.5 4.8 14.4 15.3 16.2 25.9 0.3-0.1 0.7 0.1 0.7 0.6 0.1 9.4 4.9 21.9 12.1 29.2 7.7-8.2 13.6-17.8 13.5-29.3-0.1-11-4.4-21.8-11.2-30.3-7.9-9.8-17.9-16.2-29.2-21.4-11.3-5-23.6-9.6-36-9.4-15 0.1-28.2 8.3-38.2 19.1-10.8 11.8-15.5 26.4-17.3 42.1-1.5 12.8-1.7 26.1 2.1 38.6 4.7 15.5 14.2 28.6 26.9 38.6 26.7 21.3 60.6 35.1 95.2 32.9 16.8-1 34.8-5.4 48.1-16.2 9-7.4 15.7-17.3 21.2-27.5 6.1-11.4 11.8-24.2 12.8-37.3 0.9-11.6-3.2-19.3-11-27.5-13.4-14.3-39.9-35.7-60.7-24.4-3.2 1.7-5.6-3.3-2.5-5.2 15.9-9.1 35.7 0.1 49.1 9.5 9 6.3 17.6 13.8 24.1 22.6 5.9 8 8 16.8 6.8 26.8-2.9 21.9-14.8 47.2-32 61.6zm-88.2-49.3c-3.1-3.7-5.6-7.6-7.4-11.8-1.1-2.7-1.9-5.6-2.3-8.5-7.4 10-23.9-0.6-32.7 6.7-10.8 8.8 1.4 19.6 10.8 21.7 11.4 2.5 22.4-1.1 31.5-8q0-0.1 0.1-0.1zm29.4-7.9q-1.7-1.3-3.2-2.8c-0.8 0.2-1.3-0.5-1.3-1.2-7.1-7.6-11.6-18.6-11.6-28.8-0.4 0.1-0.7-0.1-0.9-0.5-1.6-4.7-3.2-9.4-5.5-13.5-2.4 3.1-5.8 5.1-7.8 8.6-2.7 4.6-4.4 9.8-4.8 15.1-0.7 9.1 0.8 17.5 6.4 24.8 9 11.6 24.2 23 39.2 24.7 7.4 0.8 20.4-5.3 11.7-13.9-6.2-6.1-15.3-7.4-22.2-12.5zm14.8-32.5c-0.8 11-5.6 21.4-15.6 28.3q0.5 0.4 1.1 0.8c6.3 4.6 14.5 6.4 20.8 10.9 3.1-3.3 7.6-5.1 10.5-8.8 3.5-4.4 6.6-9.5 6.5-15.3-0.3-11-12.6-19.2-22.9-15.9q-0.2 0-0.4 0z"/><path  d="m38.8 62.1c-2.6-3-6.2 0.2-3.5 3.2 1.3 1.5 4.9-1.7 3.5-3.2z"/><path  d="m29.5 70.3c-1.9-2.2-5.7 1-3.7 3.3 2.6 3 6.4-0.3 3.7-3.3z"/><path  d="m36.3 93.6c-1.3-1.5-4.6 1.4-3.3 2.9 2.7 3 5.9 0.1 3.3-2.9z"/><path  d="m46.4 121.2c-0.5-0.2-0.9-0.5-1.3-0.9q-0.2-0.2-0.3-0.4c-0.5-0.4-0.7-1.2-0.4-1.8 0.3-0.4 0.7-0.8 1.1-0.9 0.9-0.7 2-0.4 2.8 0.3 0.4 0.4 0.6 0.9 0.7 1.4 0.3 1.5-1.2 2.6-2.6 2.3z"/><path  d="m46.6 132.4c-0.9-0.3-1.5-1-2.1-1.6-0.9-0.7-0.6-2.2 0.1-2.9 0.8-0.7 2.3-0.8 3 0.2 0.5 0.7 1.1 1.4 1.3 2.3 0.3 1.2-1.1 2.5-2.3 2z"/><path  d="m87 139.7c-2.7-3-6.3 0.1-3.6 3.1 1.3 1.5 4.9-1.6 3.6-3.1z"/><path  d="m71.5 145.2c-2.6-3-7 0.9-4.4 3.9 2 2.2 6.4-1.6 4.4-3.9z"/><path  d="m96 151.7c-2.7-3-7 0.8-4.3 3.8 2.6 3 6.9-0.8 4.3-3.8z"/><path  d="m123.9 156.5c-2-2.3-5.6 0.9-3.6 3.1 2 2.3 5.5-0.8 3.6-3.1z"/><path  d="m132.8 148.6c-1.3 0.7-2.9 0.1-3.6-1.2-0.7-1.6 0.2-3.5 1.9-3.8 1.5-0.3 2.5 0.6 3.1 1.8 0.3 0.4 0.1 1.2 0 1.7-0.2 0.7-0.7 1.2-1.4 1.5z"/><path  d="m158.3 148.9c-2.6-3.1-6.4 0.3-3.7 3.3 1.9 2.2 5.7-1.1 3.7-3.3z"/><path  d="m171.7 138.5c-2.7-3-6.8 0.6-4.2 3.6 2.7 3 6.8-0.6 4.2-3.6z"/><path  d="m174.2 116.3c-2.6-3-6.6 0.5-4 3.5 1.3 1.5 5.4-2 4-3.5z"/><path  d="m143.9 161.5c-2.6-3-6.4 0.3-3.7 3.3 1.9 2.3 5.7-1.1 3.7-3.3z"/><path  d="m114.2 141c-2-2.2-5 0.4-3 2.7 1.3 1.5 4.3-1.2 3-2.7z"/><path  d="m29 113.3c-1.3-1.5-4.3 1.2-3 2.7 2 2.2 5-0.4 3-2.7z"/><path  d="m17.2 65.5c-7.3 9.1-11 19.5-13.1 30.8-0.2 1.3-2.4 1-2.3-0.3 1-11.9 6.7-22.5 15-30.9 0.3-0.3 0.6 0.2 0.4 0.4z"/><path  d="m19.6 83.7c-6.3 9.1-8.9 18-9.5 29-0.1 1.3-2.1 1.3-2.2 0-0.4-11.2 3.4-21.4 10.6-29.9 0.5-0.6 1.6 0.2 1.1 0.9z"/><path  d="m22.7 102.9c-4 9.1-5.5 17.5-1.7 26.9 0.3 0.7-0.7 1.2-1.2 0.7-6.4-7.7-2.5-20.5 2.1-28.1 0.4-0.5 1.1 0 0.8 0.5z"/><path  d="m37.8 150.5c-6.4-8-6.3-18-6-27.8 0.1-0.7 1-0.7 1 0 0.3 9.6 0.1 18.9 6.2 26.9 0.4 0.7-0.7 1.5-1.2 0.9z"/><path  d="m21.1 50.8c-3.6 2.5-7.3 4.8-10.2 8-2.8 2.9-4.6 6.1-6.4 9.7-0.5 1-2.2 0.3-1.8-0.8 3.1-8 10.2-14.4 18.2-17.2 0.3-0.1 0.4 0.2 0.2 0.3z"/><path  d="m29.1 33.6c-7.8 4.1-15.8 7.2-19.9 15.6-0.5 1.1-2.2 0.3-1.9-0.8 2.4-8.6 13.7-13.6 21.6-15.3 0.3-0.1 0.5 0.3 0.2 0.5z"/><path  d="m104.7 82.4c-3.7-2.4-6.2-6.8-7.2-11.1-0.7-3.4-1.7-8.5 0.8-11.3 0.5-0.5 1.4-0.2 1.6 0.4 0.8 3.7-0.4 7.5 0.7 11.3 1.1 3.7 2.6 6.9 4.8 10 0.3 0.5-0.2 1-0.7 0.7z"/><path  d="m104.3 100c-5.8-0.2-12.7-6.3-15.1-11.4-0.7-1.5 1.3-2.6 2.2-1.2 1.8 2.3 3.5 4.7 5.8 6.6 2.4 1.9 4.9 3.3 7.5 4.7 0.6 0.4 0.3 1.3-0.4 1.3z"/><path  d="m118.5 111.6c-4.7 3.4-11.2 2.6-16.2 0.3-1.6-0.6-0.5-3.2 1.1-2.7 4.9 1.8 9.7 2.4 14.9 1.8 0.4-0.1 0.5 0.5 0.2 0.6z"/><path  d="m134.7 120.6c-6.7 3-14.3 4-21.5 2.3-2-0.5-1.2-3.8 0.9-3.2 6.8 2 13.2 0.6 20.1-0.3 0.6-0.1 1.2 0.8 0.5 1.2z"/><path  d="m196.9 144.3c-0.4 1.4-2.7 1.2-2.5-0.3 1.5-14.2 3.1-27.1-5.3-39.7-0.5-0.6 0.5-1.3 1.1-0.8 9.9 9.9 10.5 28.1 6.7 40.8z"/><path  d="m206.7 123.9c-0.7 1.1-2.1 0.5-2.2-0.6-0.3-2.8 0.5-5.6 0.2-8.4-0.2-2.9-0.7-5.7-1.6-8.4-1.8-5.4-4.3-10.4-7.9-14.7-0.6-0.7 0.3-1.6 1-1 4.7 4.4 8.2 10.1 10 16.3 1.5 4.9 3.2 12.1 0.5 16.8z"/><path  d="m213.4 104c-0.1 1.4-2.2 1.4-2.2 0 0.1-14.5-8.4-24.5-21.1-30.2-0.5-0.3-0.1-1 0.4-0.9 14.3 2.8 24.8 16.5 22.9 31.1z"/><path  d="m61.8 100.4c-0.7 2.5-0.9 5 0.2 7.4 0.2 0.4-0.3 0.8-0.6 0.5-1.9-2.4-2.8-5.2-2.4-8.3 0.3-2.8 1.9-6.4 5.1-6.9 0.8-0.1 1.4 0.6 1 1.4-0.9 2.1-2.7 3.6-3.3 5.9z"/><path  d="m76.1 95.8c-2.2 1.7-2.5 4-2.5 6.6 0.1 1.5 0.5 5.3 2.2 6.1 0.2 0.1 0.1 0.4-0.1 0.4-1.6-0.1-2.3-0.1-3.4-1.4-1-1.3-1.5-3.1-1.7-4.7-0.6-3.3 0.4-7.8 3.6-9.5 1.5-0.8 3.4 1.3 1.9 2.5z"/><path  d="m28.3 142.4c-3.2-6.1-3-13.1-2.4-19.7 0.1-0.6 0.8-0.6 0.9 0 0.5 6.5-0.1 12.8 2.9 18.9 0.4 0.9-0.9 1.7-1.4 0.8z"/><path  d="m17.2 97.4c-2.5 8.2-2.9 16.1-3.7 24.6-0.1 0.7-1 0.7-1 0-0.7-8.4 1-17.1 4.3-24.8 0.1-0.2 0.5 0 0.4 0.2z"/><path  d="m40 136.6v0.1z"/><path  d="m49.3 158.3c-6-5.5-8.7-14.4-10.1-22.2-0.1-0.6 0.8-0.9 0.9-0.2 1.7 8 4.7 15.4 9.9 21.8 0.4 0.4-0.2 1-0.7 0.6z"/><path  d="m60.7 162.3c-5.8-4.7-7.6-12.5-8-19.6 0-0.3 0.5-0.4 0.5-0.1 1.2 7.2 3.1 13.6 8.1 19.1 0.4 0.4-0.2 0.9-0.6 0.6z"/><path  d="m69.3 167.7c-3.6-3.4-4.2-9-4-13.7 0-0.5 0.7-0.5 0.7 0 0.3 4.8 0.9 9.2 4 13 0.4 0.5-0.2 1.2-0.7 0.7z"/><path  d="m86.7 174.3c-3.9-3.3-6.8-8.4-7.5-13.5-0.1-0.6 0.8-0.9 0.9-0.3 1.1 5.1 4 9.2 7.2 13.2 0.4 0.4-0.2 1-0.6 0.6z"/><path  d="m77.4 168.3c-2.7-3.2-4.2-6.8-4.1-11 0-0.5 0.7-0.5 0.8 0 0.2 4 1.6 7.3 4 10.5 0.2 0.4-0.4 0.9-0.7 0.5z"/><path  d="m188.5 138.7c-0.5 6.6-1.3 14-4.7 19.8-0.6 0.9-2.1 0.1-1.6-0.9 3.1-6.1 4.4-13.4 4.8-20.2 0.4-5.9 0.8-13.2-2.2-18.6-0.2-0.3 0.2-0.5 0.4-0.3 4.1 5.5 3.9 13.8 3.3 20.2z"/><path  d="m181.4 150c-1.1 4.7-2.6 13.3-6.5 16.5-0.6 0.4-1.5 0.1-1.3-0.7 1.7-4.7 4.3-9 5.6-14 1.1-3.8 3.3-10.6 1-14.4-0.1-0.1 0.1-0.3 0.2-0.2 3.6 2.4 1.8 9.3 1 12.8z"/><path  d="m211.1 112c-0.1 1.1-1.5 1-1.6 0-1.2-11.3-2.1-22.3-12.8-28.9-0.6-0.3-0.1-1.2 0.6-0.9 10.5 5 14.8 18.8 13.8 29.8z"/><path  d="m55.3 107.3c0.1 0.4-0.5 0.4-0.6 0.1-1.1-3.7-2.5-8.5-0.8-12.3 0.2-0.4 0.9-0.2 0.9 0.2-0.3 2.1-0.6 4.2-0.3 6.3 0.2 1.9 0.6 3.8 0.8 5.7z"/><path  d="m68.7 93.5c-1.5 3.5-1.5 7.4-0.8 11.1 0 0.2-0.3 0.4-0.4 0.2-1.5-3.3-1.6-8.6 0.5-11.7 0.3-0.4 0.9 0 0.7 0.4z"/><path  d="m83.4 104.3c-3.2-2.7-4-8.5-1.6-11.9 0.4-0.5 1.3-0.2 1.1 0.4-1.5 3.8-1.3 7.6 1.1 11 0.3 0.4-0.3 0.8-0.6 0.5z"/><path  d="m100.6 86.8c-5.1-2.4-9.2-7.1-9.6-12.8 0-0.7 1.1-0.9 1.3-0.2 1.2 5.3 5 8.4 9.1 11.4 1 0.7 0.2 2-0.8 1.6z"/><path  d="m107.7 108.6c-3.7 0.3-7.6 0.6-10.3-2.3-0.4-0.4 0.2-0.9 0.5-0.6 2.8 2.2 6.5 1.5 9.8 1.7 0.8 0 0.7 1.2 0 1.2z"/><path  d="m123.3 115.8c-3.1 2.4-7.2 3.5-11.1 2.6-0.4-0.1-0.3-0.8 0.1-0.8 4 0.2 6.9-1.2 10.4-2.8 0.7-0.3 1.2 0.6 0.6 1z"/><path  d="m140.1 125.1c-2.8 2.5-6 3.9-9.8 3.9-0.4 0-0.4-0.6 0-0.7 3.5-0.1 6.5-1.6 9-4 0.5-0.5 1.3 0.3 0.8 0.8z"/></svg>
