<svg width="0" height="0" class="hidden">
  <symbol version="1.0" xmlns="http://www.w3.org/2000/svg" preserveAspectRatio="xMidYMid meet" viewBox="0 0 106.000000 106.000000" id="Vektor-Smartobj">
    <g transform="translate(0.000000,106.000000) scale(0.100000,-0.100000)" fill="#000000" stroke="none"></g>
  </symbol>
  <symbol xmlns="http://www.w3.org/2000/svg" viewBox="0 0 24 24" id="menu">
    <path d="M21.5 24h-19A2.503 2.503 0 010 21.5v-19C0 1.122 1.121 0 2.5 0h19C22.879 0 24 1.122 24 2.5v19c0 1.378-1.121 2.5-2.5 2.5zM2.5 1C1.673 1 1 1.673 1 2.5v19c0 .827.673 1.5 1.5 1.5h19c.827 0 1.5-.673 1.5-1.5v-19c0-.827-.673-1.5-1.5-1.5z"></path>
    <path d="M16.5 8h-9a.5.5 0 010-1h9a.5.5 0 010 1zm0 4.5h-9a.5.5 0 010-1h9a.5.5 0 010 1zm0 4.5h-9a.5.5 0 010-1h9a.5.5 0 010 1z"></path>
  </symbol>

  <svg width="0" height="0" class="hidden">
    <symbol xmlns="http://www.w3.org/2000/svg" viewBox="1.99 1.015 20.597 19.968" id="Stars-filled">
      <path d="m12.29 1.015 3.182 6.573 7.116 1.055-5.15 5.116 1.216 7.224-6.365-3.411-6.365 3.411L7.14 13.76 1.99 8.643l7.117-1.055 3.182-6.573Z" fill-rule="evenodd"></path>
    </symbol>
  </svg>

  <svg width="0" height="0" class="hidden">
    <symbol xmlns="http://www.w3.org/2000/svg" viewBox="1 119 20.005 20.006" id="interface - fav">
      <path d="M11.393 119.133a.628.628 0 0 0-.39-.133.628.628 0 0 0-.389.132.6.6 0 0 0-.176.214l-3.54 6.535H1.68a.618.618 0 0 0-.058-.003.619.619 0 0 0-.61.74.617.617 0 0 0 .035.116.625.625 0 0 0 .192.26l4.667 4.667-.842 3.115-.924 3.42a.639.639 0 0 0-.023.166.645.645 0 0 0 0 .023.555.555 0 0 0 0 .001c0 .117.038.235.111.336a.629.629 0 0 0 .013.017.645.645 0 0 0 .358.245.665.665 0 0 0 .037.008.654.654 0 0 0 .131.014.649.649 0 0 0 .351-.103.665.665 0 0 0 .11-.08l5.776-4.102 5.775 4.101a.665.665 0 0 0 .11.08.649.649 0 0 0 .351.104.654.654 0 0 0 .132-.014.665.665 0 0 0 .037-.008.645.645 0 0 0 .357-.245.629.629 0 0 0 .013-.017.572.572 0 0 0 .11-.336.555.555 0 0 0 0-.002.645.645 0 0 0 .001-.022.639.639 0 0 0-.022-.167l-1.767-6.534 4.667-4.667a.625.625 0 0 0 .195-.266.617.617 0 0 0 .032-.11.62.62 0 0 0-.61-.74.618.618 0 0 0-.058.003h-5.22l-3.539-6.535a.6.6 0 0 0-.174-.213Zm3.421 8a.637.637 0 0 0 .024-.003h4.037l-1.436 1.436-2.46 2.46a.645.645 0 0 0-.238.497.64.64 0 0 0 .023.168l1.402 5.187-4.668-3.315a.665.665 0 0 0-.464-.172.685.685 0 0 0-.031.001.685.685 0 0 0-.032 0h-.012a.663.663 0 0 0-.451.171l-4.669 3.315.478-1.769.925-3.418a.64.64 0 0 0 .022-.168.645.645 0 0 0-.238-.497L3.13 127.13h4.038a.637.637 0 0 0 .023.003.63.63 0 0 0 .603-.3l3.209-5.925 1.333 2.463 1.875 3.461a.63.63 0 0 0 .603.3Z" fill="rgba(255, 255, 255, 1)" fill-rule="evenodd"></path>
    </symbol>
  </svg>

</svg>